<?xml version="1.0" encoding="utf-8"?>
<!-- Generator: Adobe Illustrator 22.1.0, SVG Export Plug-In . SVG Version: 6.00 Build 0)  -->
<svg version="1.1" id="Layer_1" xmlns="http://www.w3.org/2000/svg" xmlns:xlink="http://www.w3.org/1999/xlink" x="0px" y="0px"
	 viewBox="0 0 300 40" enable-background="new 0 0 300 40" xml:space="preserve">
<g>
	<path fill="#f47873" d="M9,18.2c2.3,0,4.6-0.1,7-0.3c0.9,0,1.9-0.1,2.8-0.1c4.2-0.3,8.3-0.6,12.5-0.9c5-0.3,10-0.7,14.9-1.2
		c7.1-0.6,14.2-1.2,21.3-1.7c1.6-0.1,3.3-0.3,4.9-0.3c4.1-0.3,8.3-0.6,12.4-0.9c4.1-0.3,8.3-0.6,12.4-0.9c1.6-0.1,3.2-0.3,4.9-0.3
		c6.6-0.3,13.2-0.6,19.8-0.9c4.1-0.1,8.1-0.4,12.2-0.6c1.6,0,3.2-0.1,4.8-0.1c6.4-0.1,12.8-0.3,19.2-0.4c6.3-0.1,12.6-0.3,18.9-0.4
		c1.7,0,3.3,0,5,0c4.1,0,8.2,0,12.3,0c6.4,0,12.8,0,19.2-0.1c2.1,0,4.2,0,6.3,0c4.4,0,8.8,0,13.1,0c0.4,0,0.7,0,1.1,0
		c-9.9,0.1-19.7,0.4-29.6,0.6c-4.1,0.1-8.2,0.1-12.4,0.3c-1.8,0-3.6,0-5.3,0.1c-6,0.3-11.9,0.4-17.9,0.7c-6.9,0.3-13.8,0.6-20.7,0.9
		c-1.2,0-2.3,0.1-3.5,0.3c-3.7,0.3-7.3,0.4-11,0.7c-7.4,0.4-14.9,1-22.3,1.5c-1.1,0.1-2.2,0.1-3.3,0.3c-3.6,0.4-7.3,0.7-10.9,1.2
		c-6.5,0.6-13,1.3-19.5,1.9c-1.8,0.1-3.6,0.4-5.4,0.7c-4.2,0.6-8.3,1-12.5,1.6c-5.3,0.6-10.6,1.3-15.9,1.9
		c-7.4,0.9-14.7,1.9-22.1,2.8c-1.8,0.3-3.5,0.4-5.3,0.7c-3.2,0.4-6.3,1-9.5,1.5c-0.3,0-0.6,0.4-0.6,0.9c0,0.4,0.3,0.9,0.6,0.9
		c1.2,0.1,2.3,0.1,3.5,0.1c-0.1,0.4-0.2,0.9-0.2,1.5c0,1.7,1,3.3,2.3,3.3c9-0.9,18.1-1.7,27.1-2.3c7.9-0.6,15.7-1,23.6-1.6
		c8.7-0.6,17.4-1.2,26-1.7c2.7-0.1,5.5-0.4,8.2-0.6c0.8,0,1.6-0.1,2.4-0.1c14-0.6,28-1,41.9-1.6c7.5-0.3,14.9-0.6,22.4-0.9
		c2.7-0.1,5.4-0.1,8.1-0.3c14.3-0.3,28.6-0.6,42.9-1c6.1-0.1,12.3-0.3,18.4-0.4c5.2-0.1,10.5-0.1,15.7-0.4c4.3-0.3,8.6-0.4,13-0.7
		c2.2-0.1,4.3-0.1,6.5-0.4c4.9-0.4,9.8-0.9,14.7-1.5l0,0c-0.3,0.7-0.4,1.5-0.2,2.3c0.1,0.7,0.5,1.5,0.9,1.7c0.4,0.4,1.1,0.6,1.6,0.3
		c1.1-0.6,2.1-1.3,3.2-1.9c0,0,0,0-0.1,0c0.1,0,0.2-0.1,0.2-0.1c0.1,0,0.2-0.1,0.3-0.1h-0.1c0.6-0.3,1.1-0.7,1.7-1s1.2-0.7,1.8-1.2
		c0.6-0.4,1.3-0.9,1.9-1.5c0.7-0.6,1.1-1.7,1.1-2.9c0-0.6-0.1-1.2-0.3-1.6c-0.3-0.7-0.8-1.3-1.4-1.5c-0.5-0.1-1.1-0.3-1.6-0.3
		c-0.1,0-0.2,0-0.4,0c-0.4,0-0.8,0.1-1.1,0.1c-0.8,0.1-1.7,0.3-2.5,0.3c-0.7,0-1.4,0.1-2,0.1c-1.8,0.1-3.7,0.4-5.5,0.6
		c-0.5,0-0.9,0.1-1.4,0.1c0.2-0.3,0.3-0.6,0.4-1c0.1-0.3,0.1-0.6,0.1-0.9c0-0.3,0-0.4,0.1-0.7c0-0.3,0-0.6-0.1-0.9
		c0,0,0.1,0,0.1-0.1c0.3-0.3,0.6-0.7,0.8-1.2c0.2-0.6,0.3-1,0.3-1.7c0-0.6-0.1-1.2-0.3-1.7c-0.1-0.3-0.2-0.4-0.4-0.7
		c-0.3-0.4-0.6-0.7-1-0.9c-0.7-0.4-1.4-0.4-2.2-0.4c-0.6,0-1.2,0-1.8,0c-0.9,0-1.8,0-2.6,0c-1.2,0-2.5,0-3.7,0c-3.3,0-6.6,0-9.9,0
		c-3.1,0-6.2,0-9.3,0c-2.8,0-5.6,0-8.4,0c-11.2,0-22.4,0.1-33.6,0.3c-8.4,0.1-16.8,0.3-25.2,0.4c-3.8,0-7.5,0.1-11.3,0.3
		c-8.4,0.3-16.8,0.6-25.3,0.7c-2.4,0.1-4.8,0.1-7.2,0.3c-1.4,0-2.8,0.1-4.2,0.3c-8.3,0.4-16.6,0.9-25,1.3c-2.5,0.1-5.1,0.3-7.6,0.4
		c-1.4,0.4-2.8,0.6-4.2,0.7C89.7,8.3,81.5,9,73.2,9.6c-4.3,0.4-8.6,0.7-12.8,1.2c-7.3,0.7-14.6,1.3-21.9,2c-6.3,0.6-12.7,1-19,1.6
		c-1,0.1-2,0.1-3,0.3c-1.6,0.1-3.2,0.3-4.9,0.3c-1.4,0.1-2.9,0.1-4.3,0.1c-0.1-0.6-0.5-1-0.9-0.9c-0.9,0.1-1.9,0.3-2.8,0.4
		c-0.5,0-0.8,0.4-1,1c-0.1,0.7,0.2,1.6,0.7,1.7c0.4,0.1,0.8,0.3,1.2,0.4C4.9,18,5.3,18,5.7,18.2C6.8,18.2,7.9,18.2,9,18.2z
		 M264.6,13.1c1.4,0,2.7,0,4.1,0c0.1,0.4,0.3,0.9,0.5,1.2c-0.5,0-1.1,0.1-1.6,0.1c-1,0-2,0.1-3,0.1c-4.3,0.3-8.6,0.4-13,0.7
		c-2,0.1-4,0.3-5.9,0.3c-3.1,0-6.2,0.1-9.3,0.1c-7.1,0.1-14.1,0.3-21.2,0.4c-13.7,0.3-27.4,0.6-41.1,1c-9.8,0.3-19.6,0.7-29.5,1
		c-14.8,0.6-29.6,1.2-44.4,1.7c-3,0.1-5.9,0.4-8.9,0.6c-8.4,0.6-16.8,1.2-25.2,1.7c-8.2,0.6-16.5,1.2-24.7,1.7
		c-0.8,0-1.5,0.1-2.3,0.1c2.2-0.3,4.4-0.6,6.7-0.7c7.8-0.9,15.5-1.7,23.3-2.6c2.7-0.3,5.4-0.6,8.1-0.9c1.4-0.1,2.8-0.3,4.2-0.4
		c8.1-0.7,16.1-1.5,24.2-2.2c1.6-0.1,3.2-0.3,4.7-0.4c2.3-0.1,4.5-0.3,6.8-0.4c8.3-0.4,16.6-0.9,25-1.5c1.8-0.1,3.7-0.1,5.5-0.3
		c0.5,0,1,0,1.4,0c1.3,0,2.6-0.1,3.9-0.1c8.3-0.3,16.7-0.4,25-0.7c3.8-0.1,7.7-0.3,11.5-0.3c12.4-0.1,24.8-0.3,37.2-0.4
		C239.3,13.2,251.9,13.1,264.6,13.1z"/>
	<ellipse fill="#7BC460" cx="25.4" cy="39.1" rx="0.6" ry="0.9"/>
</g>
</svg>
